<?xml version="1.0" encoding="UTF-8" standalone="no"?>
<!-- Generator: Adobe Illustrator 25.0.1, SVG Export Plug-In . SVG Version: 6.00 Build 0)  -->

<svg
   xmlns:dc="http://purl.org/dc/elements/1.1/"
   xmlns:cc="http://creativecommons.org/ns#"
   xmlns:rdf="http://www.w3.org/1999/02/22-rdf-syntax-ns#"
   xmlns:svg="http://www.w3.org/2000/svg"
   xmlns="http://www.w3.org/2000/svg"
   xmlns:sodipodi="http://sodipodi.sourceforge.net/DTD/sodipodi-0.dtd"
   xmlns:inkscape="http://www.inkscape.org/namespaces/inkscape"
   version="1.0"
   id="katman_1"
   x="0px"
   y="0px"
   viewBox="0 0 795.59998 215.8"
   xml:space="preserve"
   sodipodi:docname="bnb_name.svg"
   width="795.59998"
   height="215.8"
   inkscape:version="0.92.4 (5da689c313, 2019-01-14)"><metadata
   id="metadata31"><rdf:RDF><cc:Work
       rdf:about=""><dc:format>image/svg+xml</dc:format><dc:type
         rdf:resource="http://purl.org/dc/dcmitype/StillImage" /></cc:Work></rdf:RDF></metadata><defs
   id="defs29" /><sodipodi:namedview
   pagecolor="#ffffff"
   bordercolor="#666666"
   borderopacity="1"
   objecttolerance="10"
   gridtolerance="10"
   guidetolerance="10"
   inkscape:pageopacity="0"
   inkscape:pageshadow="2"
   inkscape:window-width="2560"
   inkscape:window-height="1057"
   id="namedview27"
   showgrid="false"
   inkscape:zoom="0.29064039"
   inkscape:cx="-30.764407"
   inkscape:cy="108.4"
   inkscape:window-x="1912"
   inkscape:window-y="-8"
   inkscape:window-maximized="1"
   inkscape:current-layer="katman_1" />
<style
   type="text/css"
   id="style2">
	.st0{fill:#F3BA2F;}
</style>
<desc
   id="desc4">Created with Sketch.</desc>
<g
   id="g24"
   transform="translate(-163.4,-298.6)">
	<path
   id="Shape"
   class="st0"
   d="M 385.4,324.6 H 422 c 9.3,0 16.1,2.5 20.5,6.8 4.3,3.7 6.2,8.7 6.2,13.6 v 0 c 0,1.9 0,4.3 -0.6,6.2 -1.2,3.1 -3.1,6.2 -5.6,8.7 -1.2,1.2 -2.5,1.9 -3.7,2.5 4.3,1.2 8.1,3.7 11.2,6.8 2.5,3.1 3.7,6.8 3.7,12.4 v 0 c 0,3.1 -0.6,6.8 -1.9,9.3 -1.2,2.5 -3.7,5 -6.2,6.8 -3.1,1.9 -6.2,3.1 -9.3,4.3 -3.7,1.2 -8.1,1.2 -12.4,1.2 H 386 v -78.8 h -0.6 z m 33.5,32.2 c 3.1,0 6.2,-0.6 9.3,-1.9 2.5,-1.2 3.7,-3.7 3.7,-6.2 v 0 c 0,-2.5 -1.2,-5 -3.1,-6.2 -2.5,-1.9 -5.6,-2.5 -8.7,-1.9 h -17.4 v 16.7 h 16.1 v -0.5 z m 4.3,31.7 c 3.1,0 6.2,-0.6 9.3,-1.9 2.5,-1.2 3.7,-3.7 3.1,-6.8 v 0 c 0,-2.5 -1.2,-5 -3.1,-6.2 -1.9,-1.2 -5.6,-2.5 -9.9,-2.5 h -20.5 v 17.4 z"
   inkscape:connector-curvature="0"
   style="fill:#f3ba2f" />
	<polygon
   id="Path"
   class="st0"
   points="492.7,404 475.3,404 475.3,324.6 492.7,324.6 "
   style="fill:#f3ba2f" />
	<polygon
   id="Path_1_"
   class="st0"
   points="572.7,373.6 572.7,324.6 590,324.6 590,404 575.2,404 536.1,353.7 536.1,404 519.4,404 519.4,324.6 535.5,324.6 "
   style="fill:#f3ba2f" />
	<path
   id="Shape_1_"
   class="st0"
   d="m 642.8,324 h 16.1 l 34.1,80 h -18 l -7.4,-18 h -33.5 l -7.4,18 h -18 z m 18.6,47.1 -10.5,-26 -10.5,26 z"
   inkscape:connector-curvature="0"
   style="fill:#f3ba2f" />
	<polygon
   id="Path_2_"
   class="st0"
   points="764.9,373.6 764.9,324.6 782.3,324.6 782.3,404 767.4,404 728.9,353.7 728.9,404 711.6,404 711.6,324.6 727.7,324.6 "
   style="fill:#f3ba2f" />
	<path
   id="Path_3_"
   class="st0"
   d="m 845.5,405.2 c -5.6,0 -11.2,-1.2 -16.1,-3.1 -9.9,-4.3 -17.4,-11.8 -21.7,-21.7 -1.9,-5 -3.1,-10.5 -3.1,-16.1 v 0 c 0,-10.5 4.3,-21.1 11.8,-29.1 3.7,-3.7 8.1,-6.8 13,-8.7 5.6,-2.5 11.2,-3.1 16.7,-3.1 3.1,0 6.8,0 9.9,0.6 3.1,0.6 5.6,1.2 8.1,2.5 2.5,1.2 5,2.5 6.8,3.7 1.9,1.2 4.3,3.1 6.2,5 l -10.5,13 c -3.1,-2.5 -6.2,-5 -9.3,-6.8 -3.1,-1.8 -6.8,-2.5 -10.5,-2.5 -3.1,0 -6.2,0.6 -9.3,1.9 -3.1,1.2 -5.6,3.1 -7.4,5.6 -1.8,2.5 -3.7,5 -5,8.1 -1.2,3.1 -1.9,6.2 -1.9,9.3 v 0 c 0,3.1 0.6,6.8 1.9,9.9 1.3,3.1 2.5,5.6 5,8.1 4.3,5 10.5,7.4 16.7,7.4 3.7,0 8.1,-0.6 11.8,-2.5 3.1,-1.9 6.8,-4.3 9.3,-6.8 L 879,391 c -1.9,1.9 -4.3,4.3 -6.2,6.2 -2.5,1.9 -5,3.1 -7.4,4.3 -2.5,1.2 -5.6,2.5 -8.7,3.1 -4.4,0.6 -8.1,0.6 -11.2,0.6 z"
   inkscape:connector-curvature="0"
   style="fill:#f3ba2f" />
	<polygon
   id="Path_4_"
   class="st0"
   points="958.4,340.1 915.6,340.1 915.6,356.2 953.4,356.2 953.4,371.7 915.6,371.7 915.6,388.5 959,388.5 959,404 898.9,404 898.9,324.6 958.4,324.6 "
   style="fill:#f3ba2f" />
	<path
   id="Path_5_"
   class="st0"
   d="m 407.7,482.1 c -4.3,0 -8.7,-0.6 -12.4,-2.5 -3.7,-1.2 -7.4,-3.7 -11.2,-6.8 l 6.2,-6.8 c 2.5,2.5 5,3.7 8.1,5.6 3.1,1.2 6.2,1.9 9.3,1.9 2.5,0 5,-0.6 7.4,-1.9 1.9,-1.2 2.5,-3.1 2.5,-5 v 0 c 0,-0.6 0,-1.9 -0.6,-2.5 -0.6,-0.6 -1.2,-1.9 -1.9,-2.5 -1.2,-0.6 -2.5,-1.2 -3.7,-1.9 -1.9,-0.6 -4.3,-1.2 -6.2,-1.9 -2.5,-0.6 -5.6,-1.2 -8.1,-2.5 -1.9,-0.6 -4.3,-1.9 -5.6,-3.1 -1.2,-1.2 -2.5,-2.5 -3.7,-4.3 -1.2,-2.5 -1.2,-5 -1.2,-6.8 v 0 c 0,-2.5 0.6,-4.3 1.2,-6.8 0.6,-1.9 2.5,-3.7 3.7,-5 1.9,-1.2 3.7,-2.5 6.2,-3.1 2.5,-0.6 5,-1.2 7.4,-1.2 3.7,0 7.4,0.6 11.2,1.9 3.1,1.2 6.2,3.1 9.3,5 l -5,7.4 c -2.5,-1.9 -5,-3.1 -7.4,-4.3 -2.5,-1.2 -5,-1.2 -7.4,-1.2 -2.5,0 -5,0.6 -6.8,1.9 -1.2,1.2 -2.5,3.1 -2.5,5 v 0 c 0,1.2 0,1.9 0.6,3.1 0.6,0.6 1.2,1.9 1.9,2.5 1.2,0.6 2.5,1.2 4.3,1.9 1.9,0.6 3.7,1.2 6.8,1.9 2.5,0.6 5,1.2 8.1,2.5 1.9,0.6 3.7,1.9 5.6,3.1 1.2,1.2 2.5,3.1 3.1,4.3 0.6,1.9 1.2,3.7 1.2,6.2 v 0 c 0,2.5 -0.6,5 -1.2,6.8 -1.2,1.9 -2.5,3.7 -4.3,5.6 -1.9,1.2 -3.7,2.5 -6.2,3.1 -3.1,-0.2 -6.2,0.4 -8.7,0.4 z"
   inkscape:connector-curvature="0"
   style="fill:#f3ba2f" />
	<polygon
   id="Path_6_"
   class="st0"
   points="466,451.7 483.4,425.7 493.9,425.7 493.9,481.5 484,481.5 484,441.2 466.6,467.2 466,467.2 448.7,441.2 448.7,481.5 438.7,481.5 438.7,425.7 449.3,425.7 "
   style="fill:#f3ba2f" />
	<path
   id="Shape_2_"
   class="st0"
   d="m 527.4,425.1 h 9.3 l 24.2,55.8 h -10.5 l -5.6,-13.6 h -26 l -5.6,13.6 h -9.9 z m 14.3,34.1 -9.9,-22.3 -9.3,22.3 z"
   inkscape:connector-curvature="0"
   style="fill:#f3ba2f" />
	<path
   id="Shape_3_"
   class="st0"
   d="m 570.8,425.7 h 24.8 c 3.1,0 6.2,0.6 9.3,1.2 2.5,0.6 5,2.5 6.8,4.3 1.2,1.2 2.5,3.1 3.7,5.6 0.6,1.9 1.2,4.3 1.2,6.8 v 0 c 0,1.9 -0.6,4.3 -1.2,6.2 -0.6,1.9 -1.9,3.1 -2.5,5 -1.2,1.2 -2.5,2.5 -4.3,3.7 -1.9,1.2 -3.7,1.9 -5.6,2.5 l 14.9,21.1 h -11.8 l -13.6,-19.2 h -12.4 v 19.2 h -9.9 z M 595,453 c 3.1,0 6.2,-0.6 8.1,-2.5 1.9,-1.9 3.1,-4.3 3.1,-6.8 v 0 c 0,-2.5 -1.2,-5 -3.1,-6.8 -2.5,-1.9 -5.6,-2.5 -8.7,-2.5 H 580.1 V 453 Z"
   inkscape:connector-curvature="0"
   style="fill:#f3ba2f" />
	<polygon
   id="Path_7_"
   class="st0"
   points="624.1,425.7 669.4,425.7 669.4,434.4 651.4,434.4 651.4,481.5 641.5,481.5 642.1,434.4 624.1,434.4 "
   style="fill:#f3ba2f" />
	<path
   id="Path_8_"
   class="st0"
   d="m 729.6,482.1 c -3.7,0 -7.4,-0.6 -11.2,-2.5 -6.8,-3.1 -12.4,-8.1 -14.9,-14.9 -1.2,-3.7 -2.5,-7.4 -1.9,-11.2 v 0 c 0,-3.7 0.6,-7.4 1.9,-11.2 2.5,-6.8 8.1,-12.4 14.9,-15.5 3.7,-1.2 7.4,-2.5 11.8,-2.5 2.5,0 5,0 6.8,0.6 1.9,0.6 3.7,1.2 5.6,1.9 1.9,0.6 3.1,1.9 5,2.5 1.2,1.2 3.1,2.5 4.3,3.7 l -6.2,7.4 c -1.9,-1.9 -4.3,-3.7 -6.8,-5 -2.5,-1.2 -5.6,-1.9 -8.7,-1.9 -2.5,0 -5,0.6 -7.4,1.2 -2.5,1.2 -4.3,2.5 -6.2,4.3 -1.9,1.9 -3.1,3.7 -3.7,6.2 -0.6,2.5 -1.2,5 -1.2,7.4 v 0 c 0,2.5 0.6,5 1.2,7.4 0.6,2.4 1.9,4.3 3.7,6.2 1.9,1.9 3.7,3.1 6.2,4.3 2.5,1.2 5,1.9 7.4,1.2 3.1,0 6.2,-0.6 8.7,-1.9 2.5,-1.2 5,-3.1 7.4,-5.6 l 6.2,6.2 c -1.2,1.2 -3.1,3.1 -4.3,4.3 -1.9,1.2 -3.1,2.5 -5,3.1 -1.9,0.6 -3.7,1.9 -6.2,1.9 -2.5,2.4 -5,2.4 -7.4,2.4 z"
   inkscape:connector-curvature="0"
   style="fill:#f3ba2f" />
	<polygon
   id="Path_9_"
   class="st0"
   points="771.7,448.6 798.4,448.6 798.4,425.7 808.3,425.7 808.3,481.5 798.4,481.5 798.4,457.9 771.7,457.9 771.7,481.5 762.4,481.5 762.4,425.7 771.7,425.7 "
   style="fill:#f3ba2f" />
	<path
   id="Shape_4_"
   class="st0"
   d="m 842.4,425.1 h 9.3 l 24.2,55.8 h -10.5 l -5.6,-13.6 h -26 l -5.6,13.6 h -9.9 z m 13.7,34.1 -9.3,-22.3 -9.3,22.3 z"
   inkscape:connector-curvature="0"
   style="fill:#f3ba2f" />
	<polygon
   id="Path_10_"
   class="st0"
   points="895.8,481.5 885.8,481.5 885.8,425.7 895.8,425.7 "
   style="fill:#f3ba2f" />
	<polygon
   id="Path_11_"
   class="st0"
   points="949.1,464.1 949.1,425.7 959,425.7 959,481.5 950.9,481.5 920.6,441.8 920.6,481.5 910.6,481.5 910.6,425.7 919.3,425.7 "
   style="fill:#f3ba2f" />
	<path
   id="binancedex"
   class="st0"
   d="M 276.3,477.8 V 502 L 255.2,514.4 234.7,502 v -24.2 l 20.5,12.4 z m -112.9,-83.7 20.5,12.4 V 448 l 35.3,21.1 v 24.2 l -55.8,-32.9 z m 183.6,0 v 66.4 l -56.4,32.9 v -24.2 l 35.3,-21.1 v -41.5 z m -56.5,-32.9 21.1,12.4 v 0 24.2 l -35.3,21.1 V 461 L 255.8,473.4 235.4,461 v -42.2 l -36.6,-21.1 v -24.2 l 21.1,-12.4 35.3,21.1 z m -91.7,53.9 20.5,12.4 v 24.2 l -20.5,-12.4 z m 112.8,0 v 24.2 l -20.5,12.4 v -24.2 z m -127.7,-75 21.1,12.4 -21.1,12.4 v 24.2 l -20.5,-12.4 v -24.2 z m 142.6,0 21.1,12.4 v 24.2 l -21.1,12.4 V 364.9 L 306,352.5 Z m -71.3,0 21.1,12.4 -21.1,12.4 -20.5,-12.4 z m 0,-41.5 56.4,32.9 -20.5,12.4 -35.3,-21.1 -36,21.1 -20.5,-12.4 z"
   inkscape:connector-curvature="0"
   style="fill:#f3ba2f" />
</g>
</svg>