<?xml version="1.0" encoding="UTF-8" standalone="no"?>
<!-- Generator: Adobe Illustrator 26.0.3, SVG Export Plug-In . SVG Version: 6.00 Build 0)  -->

<svg
   xmlns:dc="http://purl.org/dc/elements/1.1/"
   xmlns:cc="http://creativecommons.org/ns#"
   xmlns:rdf="http://www.w3.org/1999/02/22-rdf-syntax-ns#"
   xmlns:svg="http://www.w3.org/2000/svg"
   xmlns="http://www.w3.org/2000/svg"
   xmlns:sodipodi="http://sodipodi.sourceforge.net/DTD/sodipodi-0.dtd"
   xmlns:inkscape="http://www.inkscape.org/namespaces/inkscape"
   version="1.0"
   id="katman_1"
   x="0px"
   y="0px"
   viewBox="0 0 1376.6 433.79999"
   xml:space="preserve"
   sodipodi:docname="manta_name.svg"
   width="1376.6"
   height="433.79999"
   inkscape:version="0.92.4 (5da689c313, 2019-01-14)"><metadata
   id="metadata26"><rdf:RDF><cc:Work
       rdf:about=""><dc:format>image/svg+xml</dc:format><dc:type
         rdf:resource="http://purl.org/dc/dcmitype/StillImage" /></cc:Work></rdf:RDF></metadata><defs
   id="defs24" /><sodipodi:namedview
   pagecolor="#ffffff"
   bordercolor="#666666"
   borderopacity="1"
   objecttolerance="10"
   gridtolerance="10"
   guidetolerance="10"
   inkscape:pageopacity="0"
   inkscape:pageshadow="2"
   inkscape:window-width="2560"
   inkscape:window-height="1057"
   id="namedview22"
   showgrid="false"
   inkscape:zoom="0.20774648"
   inkscape:cx="111.61188"
   inkscape:cy="211.6"
   inkscape:window-x="1912"
   inkscape:window-y="-8"
   inkscape:window-maximized="1"
   inkscape:current-layer="katman_1" />
<style
   type="text/css"
   id="style2">
	.st0{fill-rule:evenodd;clip-rule:evenodd;fill:url(#SVGID_1_);}
	.st1{fill:#393E4D;}
</style>
<linearGradient
   id="SVGID_1_"
   gradientUnits="userSpaceOnUse"
   x1="123.4474"
   y1="569.29907"
   x2="565.00403"
   y2="577.36761"
   gradientTransform="matrix(1,0,0,-1,-127.3,790.2)">
	<stop
   offset="0"
   style="stop-color:#29CCB9"
   id="stop4" />
	<stop
   offset="0.4948"
   style="stop-color:#0091FF"
   id="stop6" />
	<stop
   offset="1"
   style="stop-color:#FF66B7"
   id="stop8" />
</linearGradient>
<path
   class="st0"
   d="M 100.9,372.4 C 53.5,337 22.9,280.5 22.9,216.8 22.9,109.6 109.8,22.7 217,22.7 305.5,22.7 402,75.6 425.4,156.5 399.2,66.2 315.8,0 216.9,0 97.1,0 0,97.1 0,216.9 c 0,119.8 97.1,216.9 216.9,216.9 119.8,0 216.9,-97.1 216.9,-216.9 v -11.4 h -11.9 c -0.4,0 -0.9,0 -1.6,0 -1.4,0 -3.4,-0.1 -6,-0.2 -5.1,-0.2 -12.2,-0.5 -20.2,-1.2 -16.3,-1.4 -34.8,-4.2 -47.5,-9.2 -20.3,-8.1 -31.8,-18.9 -44.9,-31.5 l -0.8,-0.7 c -13.1,-12.6 -27.9,-26.8 -53.5,-38.8 -25.2,-11.9 -53.1,-10 -73.6,-5.7 -10.4,2.1 -19.3,5 -25.6,7.3 -3.2,1.1 -5.7,2.2 -7.5,2.9 -10.3,4.3 -20.3,9.5 -30.4,14.2 0,0 19.8,5.4 29.7,8.5 0.4,0.1 0.9,0.3 1.6,0.5 1.5,0.5 3.6,1.2 6.1,2.3 5.2,2.1 12,5.3 18.7,9.6 10.6,6.8 19.4,15.4 23,25.9 -22.5,3 -43.6,12.8 -59.3,22.1 -9.6,5.6 -17.5,11.2 -23.1,15.4 -2.8,2.1 -5,3.9 -6.5,5.1 -1.3,1.1 -21.6,18.9 -21.6,18.9 0,0 26.2,2.8 39.1,5.4 8.6,1.7 20.2,4.5 32.3,8.7 12.1,4.2 24.4,9.8 34.6,16.9 10.2,7.1 17.7,15.4 21.4,24.8 10.7,27.4 0.2,54.2 -21,69.2 -20.9,14.8 -52.6,18.3 -84.4,-3.5 z m 74,34 c 8.5,-2.8 16.5,-6.8 23.7,-11.9 28.8,-20.5 43.9,-57.9 29,-96.1 -5.9,-15 -17.1,-26.5 -29.6,-35.2 -12.5,-8.7 -26.8,-15.1 -40.1,-19.7 -8.7,-3 -17.2,-5.4 -24.6,-7.2 2.6,-1.7 5.4,-3.5 8.4,-5.2 17.6,-10.3 39.7,-19.8 60.9,-19.8 32,0 55.8,9.8 78.6,20.3 2.1,1 4.1,1.9 6.2,2.9 20.3,9.5 41.7,19.6 66.5,19.6 24.1,0 42.8,-6.8 55.7,-13.8 -11.5,96.2 -93.4,170.8 -192.7,170.8 -14.4,-0.2 -28.5,-1.8 -42,-4.7 z m 210,-180.3 c -8.5,2.9 -18.9,5 -31,5 -19.5,0 -36.2,-7.8 -57.4,-17.7 -1.9,-0.9 -3.8,-1.8 -5.7,-2.7 -21.2,-9.8 -45.8,-20.3 -77.8,-22.2 -4.3,-21.2 -20.4,-35.7 -34.1,-44.5 -1.5,-1 -3.1,-1.9 -4.6,-2.8 1.4,-0.3 2.8,-0.6 4.2,-0.9 18.5,-3.8 40.6,-4.8 59.2,4 22.2,10.4 34.7,22.5 47.7,35 l 0.4,0.4 c 13.4,12.9 27.6,26.3 52.3,36.2 13.8,5.6 31.6,8.6 46.8,10.2 z"
   id="path11"
   inkscape:connector-curvature="0"
   style="clip-rule:evenodd;fill:url(#SVGID_1_);fill-rule:evenodd" />
<g
   transform="translate(-466.3,-859.8)"
   id="g19">
	<g
   transform="translate(339,497)"
   id="g17">
		<g
   transform="translate(0,17)"
   id="g15">
			<path
   class="st1"
   d="m 214.3,422.8 v 0 c 0.3,-0.3 0.5,-0.5 0.8,-0.7 v 0 z m -8.5,285.1 v 0 0 c -0.3,-0.2 -0.6,-0.5 -0.8,-0.8 v 0 z M 325.1,514.4 c -0.3,-0.2 -0.6,-0.5 -0.7,-0.8 v 0 z m -4.8,99.1 v 0 c -0.3,-0.2 -0.6,-0.4 -0.8,-0.6 z m 0.5,0.3 0.8,0.6 v 0 c -0.3,-0.2 -0.6,-0.4 -0.8,-0.6 z m 1140.2,53 40.7,-50.7 c 0.3,-0.3 0.3,-0.8 0.1,-1.1 -0.2,-0.4 -0.6,-0.6 -1,-0.6 h -16.4 c -0.3,0 -0.6,0.1 -0.8,0.4 l -51.4,63.3 c -0.3,0.4 -0.8,0.5 -1.2,0.3 -0.4,-0.1 -0.7,-0.6 -0.7,-1 v -62.1 c 0,-0.6 -0.5,-1.1 -1.1,-1.1 h -13.1 c -0.6,0 -1.1,0.5 -1.1,1.1 l -0.2,126 c 0,0.3 0.1,0.6 0.3,0.8 0.2,0.2 0.5,0.3 0.8,0.3 h 13.3 c 0.6,0 1.1,-0.5 1.1,-1.1 v -35.7 c 0,-0.2 0.1,-0.5 0.2,-0.7 l 17.1,-21.8 c 0.2,-0.3 0.6,-0.4 0.9,-0.4 0.4,0 0.7,0.2 0.9,0.5 l 34.5,58.7 c 0.2,0.3 0.5,0.5 0.9,0.5 h 19.1 c -5.3,-11.9 -39.1,-67.7 -43.1,-74.3 -0.1,-0.5 0,-0.9 0.2,-1.3 z m -339.3,-52.9 h -13.5 c -0.4,0 -0.7,0.3 -0.8,0.7 l -7,105 c 0,0.4 -0.3,0.7 -0.7,0.7 -0.4,0 -0.8,-0.2 -0.8,-0.6 l -15.6,-71.5 c -0.1,-0.4 -0.4,-0.6 -0.8,-0.6 h -18.2 c -0.4,0 -0.7,0.3 -0.8,0.6 -1.2,5.9 -10.5,52.3 -14.6,71.7 -0.1,0.4 -0.4,0.6 -0.8,0.6 -0.4,0 -0.7,-0.3 -0.7,-0.7 -1.2,-22.4 -6.9,-97.3 -7.6,-105.2 0,-0.4 -0.4,-0.7 -0.8,-0.7 -2.5,0 -10.7,0 -13.4,0 -0.2,0 -0.4,0.1 -0.6,0.2 -0.1,0.2 -0.2,0.4 -0.2,0.6 l 9.7,127.9 c 0,0 0.2,-0.4 0.1,0 0.1,0.2 0.5,0 0.5,0 h 22.1 c 0,0 13.6,-70 15,-75.7 0.1,-0.3 0.3,-0.5 0.5,-0.6 0.3,-0.1 0.6,0 0.9,0.2 v 0 c 2.5,2.4 14.9,68.2 16.2,75.4 0.1,0.4 0.4,0.7 0.8,0.7 h 21.4 c 0.4,0 0.7,-0.3 0.8,-0.7 l 9.6,-127.2 c 0,-0.2 -0.1,-0.4 -0.2,-0.6 -0.1,-0.1 -0.3,-0.2 -0.5,-0.2 z m -390,-219.1 c 1.9,0 2.3,0.5 2.3,2.3 0,0.7 0,1.4 0,2.2 v 7.2 c 0,0.9 0,1.7 0,2.6 v 8.5 c 0,1 0,2 0,3 v 15.8 c 0,1.1 0,2.2 0,3.3 v 16.8 c 0,1.1 0,2.2 0,3.4 v 19.6 c 0,1 0,2.1 0,3.1 v 8.9 c 0,0.9 0,1.9 0,2.8 v 7.8 c 0,0.8 0,1.6 0,2.4 v 4.4 c 0,0.7 0,1.3 0,2 v 3.5 c 0,3.2 0,5.5 0,6.5 0,0.7 0.3,1.5 -0.3,2.1 -4.5,-0.1 -9,-0.1 -13.5,0 -0.7,-0.7 -0.3,-1.7 -0.3,-2.5 v 0 -99.4 c 0,-0.7 0,-1.3 0,-2 -0.1,-0.7 -0.5,-0.8 -1.1,-0.6 v 0 l -0.1,0.3 c -0.1,0.2 -0.1,0.4 -0.3,0.6 -0.2,0.3 -0.1,0.6 -0.4,0.9 -0.7,0.6 -5.8,13 -11.1,26.6 l -2.1,5.5 c -5.7,14.6 -11.2,28.8 -11.6,29.7 -0.7,1.4 -0.5,1.8 -1.6,0.9 -1.6,-1.4 -21.5,-52.7 -25.9,-63.5 -0.2,-0.6 -0.9,-1.3 -1.3,-0.8 -0.1,0.2 -0.2,0.4 -0.2,0.7 v 0 17.8 c 0,19.7 -0.4,76.7 -0.4,84.9 v 1 0 h -1.5 c -0.3,0 -0.7,0 -1,0 h -2.5 c -0.5,0 -0.9,0 -1.4,0 h -4 c -1.2,0 -2.1,0 -2.6,0 -0.2,0 -0.5,0 -0.7,-0.2 -0.1,-0.2 -0.1,-0.3 -0.1,-0.5 0.1,-3.7 0.1,-14.4 0.1,-28.3 v -33.3 c 0,-1.2 0,-2.4 0,-3.6 v -7.1 c 0,-21.3 -0.1,-42.1 -0.1,-54.2 v -0.2 c 0,-0.2 0.1,-0.3 0.2,-0.4 0.1,-0.1 0.3,-0.1 0.5,-0.1 1.9,0 3.9,0.1 5.9,0.1 l 11.7,-0.1 c 0.9,0 1.8,-0.1 2,1.1 1.2,1.3 17.4,43.9 21,53.1 1.1,2.8 2,1.3 2.7,-0.6 1.1,-3 19.5,-50.7 20.6,-52 v 0 l 0.1,-0.1 v -0.1 c 0.1,-0.4 0.1,-0.7 0.4,-1 0.3,-0.2 2.9,-0.3 6.1,-0.3 h 2.9 c 0.5,0 1,0 1.5,0 h 4.2 c 0.5,-0.5 1.3,-0.5 1.9,-0.5 z m 174.5,128 c 4.5,-0.2 8.9,-0.1 13.4,0 0.7,-0.7 0.3,-1.7 0.3,-2.5 0,-34.3 0,-104.2 0,-104.9 0,-0.7 0.4,-0.9 1.1,-0.6 v 0.1 c 0.4,0.3 35.3,88.5 42.3,106 0.1,0.6 0.4,1.2 0.9,1.5 0.5,0.4 1.1,0.5 1.7,0.4 3.2,-0.1 18,1.1 19.7,0 1.2,-0.9 0.4,-111.9 0.4,-126 0,-1.5 -0.4,-2 -2,-2 -3.2,0.1 -6.5,0 -9.8,0 -2.5,0 -2.5,0 -2.5,2.5 0,33.9 0.2,103.5 -0.2,104.4 -0.4,0.4 -40.8,-102.6 -43.4,-105.8 -0.1,0 -0.1,-0.1 -0.1,-0.1 0,-0.1 0,-0.1 0,-0.2 -0.3,-1.1 -1.3,-0.8 -2,-0.8 -6.1,0 -12.3,0 -18.4,0 -1.6,0 -1.9,0.6 -1.9,2 0,41.4 0.1,82.8 0,124.2 0,0.6 -0.4,1.4 0.5,1.8 z m -188.3,91.5 c 0,0.1 -0.4,106.2 -0.4,106.2 L 673.9,614 h -22.1 c 0,0 0,122.5 0,128.2 l 13.9,-0.1 0.3,-107.8 c 0,0 28.7,72.9 43.9,107.8 h 21.9 c 0,0 0,-127.5 0,-127.9 0.1,-1.1 -12.8,-0.5 -13.9,0.1 z m 140.4,114.5 c -0.5,0 -1,0.1 -1.5,0.1 h -58.7 c -0.6,0.1 -1.2,0 -1.7,-0.2 -0.4,-0.7 -0.2,-1.4 -0.2,-2.2 0,-13.2 0,-26.5 0,-39.7 0,-2.5 0,-2.5 2.5,-2.5 18.7,0 37.4,0 56.1,0 1.8,0 2.3,-0.5 2.2,-2.2 -0.1,-3 0,-6 0,-9 0,-2.4 0,-2.4 -2.5,-2.4 h -55.7 c -2.6,0 -2.6,0 -2.6,-2.6 0,-12.6 0,-25.3 0,-37.9 0,-1.9 0.6,-2.3 2.4,-2.3 19.4,0.1 38.7,0.1 58.1,0 0.8,0 1.6,0.3 2.3,-0.3 v -13 c -0.5,-0.6 -1.3,-0.3 -1.9,-0.3 -24.8,0 -49.5,0 -74.3,-0.1 -1.9,0 -2.1,0.7 -2.1,2.3 0,41.3 0,82.5 0,123.8 0,1.9 0.6,2.3 2.4,2.3 24.6,-0.1 49.2,-0.1 73.8,-0.1 0.7,0 1.5,0.3 2.1,-0.3 0,-4.3 0,-8.7 0,-13 -0.2,-0.3 -0.4,-0.4 -0.7,-0.4 z m 264.8,-331.4 c 0,-2.8 0.3,-2.6 -2.7,-2.6 -28.1,0 -56.2,0 -84.3,0 -3.8,0 -7.7,0.1 -11.5,0 -1.5,0 -1.9,0.5 -1.9,1.9 0.1,3.2 0.1,6.5 0,9.7 -0.1,1.9 0.6,2.2 2.3,2.1 12.3,-0.1 24.7,0 37,0 3.2,0 2.9,-0.4 2.9,2.8 0,17.1 0,34.2 0,51.3 0,19.2 0,62.1 0,62.1 h 15.6 c 0,0 0,-77.4 0,-114 0,-0.7 0.1,-1.3 0.1,-2 0.8,-0.4 1.6,-0.2 2.4,-0.2 12.6,0 25.3,0 37.9,0 1.7,0 2.2,-0.4 2.1,-2.1 0,-3 0.1,-6 0.1,-9 z M 996,614.7 c -0.7,-0.8 -1.7,-0.4 -2.5,-0.4 -31.6,0 -63.1,0 -94.7,0 -0.4,0 -0.9,0 -1.3,0 -1.2,-0.1 -1.5,0.4 -1.5,1.5 0,3.2 0,6.5 0,9.7 0,2.4 0,2.4 2.4,2.4 12.5,0 25,0 37.5,0 1.8,0 2.4,0.4 2.4,2.3 -0.1,10.2 0,20.4 0,30.6 0,26.3 0,52.6 0,78.9 0,3.3 -0.4,2.9 3,2.9 3.2,0 6.5,0 9.8,0 3,0 2.8,0.4 2.8,-2.6 0,-36.2 0,-72.4 0,-108.6 0,-3.3 0,-3.3 3.4,-3.3 12.2,0 24.4,0 36.6,0 0.8,0 1.6,0.4 2.3,-0.3 -0.4,-4.5 -0.4,-8.8 -0.2,-13.1 z m 339.8,-0.4 c 10.8,0.4 20.9,3 27.9,11.9 5.9,7.5 5.7,15.9 5.8,26.3 0.1,7.4 -0.5,15.7 -4.8,21.8 -5.3,7.5 -14.3,11.6 -23.3,12.7 -0.6,0.1 -0.9,0.2 -0.8,0.7 l 0.2,0.4 v 0 l 31.7,54.2 -18.4,0.3 -29.8,-54.7 -19.9,0.3 v 3.7 c 0,0.5 0,1 0,1.5 v 3.6 c 0,0.7 0,1.4 0,2.1 v 4.5 c 0,4 0,8.4 0,12.7 v 5.2 c 0,4.2 0,8.3 0,11.6 v 5.2 0.7 0 3.2 c -0.1,0.2 -0.2,0.4 -0.5,0.4 -4.9,0.1 -9.8,0.1 -14.6,0 -0.1,0 -0.2,-0.1 -0.3,-0.2 -0.2,-0.2 -0.3,-11.9 -0.3,-28.5 v -5.1 -1.3 0 -30.6 -1.5 0 -7.7 c 0,-1 0,-2.1 0,-3.1 v -6.2 c 0,-1 0,-2 0,-3.1 v -6 -1.5 0 -7.3 -1.4 0 -9.7 -1.3 0 -11.1 l -0.1,-1.1 c 0,-0.4 0.1,-0.7 0.3,-1 0.7,-0.5 1.6,-0.3 2.3,-0.3 14.9,-0.3 29.8,-0.9 44.6,-0.3 z m -1.1,13.6 h -29.2 c -1,0 -1.2,0.2 -1.2,1.2 v 44.4 c 0,1.3 0.3,1.3 1.9,1.3 9.3,0 18.6,0 28,0 2.4,0 4.9,-0.2 7.3,-0.7 7.7,-1.8 12.4,-7 13.3,-13.9 0.7,-5.6 0.7,-11.3 0.1,-16.9 -0.6,-6.4 -4,-11.1 -10.1,-13.6 -3.3,-1.3 -6.7,-1.9 -10.1,-1.8 z M 867.6,521.8 c -1.1,-1.1 -36.7,-124.1 -37.9,-125.4 l -0.1,-0.1 v -0.2 c -0.1,-0.3 -0.1,-0.7 -0.4,-1 -6.6,-0.5 -13.1,-0.1 -19.7,-0.2 -1.8,0 -35.3,113.5 -39.6,127.8 2.5,0.1 5,0.1 7.5,0.1 2.1,0 6.4,1.3 8.2,0.1 1.8,-1.2 9.1,-33.4 10.7,-35.2 v 0 c 0.3,-0.9 0.9,-1.1 1.9,-1.1 13.7,0 27.5,0 41.2,0 0.9,0 1.6,0.2 1.9,1.1 2,5.7 9.8,33.3 9.8,33.3 0.1,0.4 0.2,0.8 0.3,1.1 0.1,0 0.1,0.1 0.1,0.1 0,0.1 0,0.1 0,0.2 0.1,0.3 0.3,0.5 0.5,0.5 5.2,-0.2 10.4,-0.2 15.7,0 0.5,-0.2 0.4,-0.5 0.2,-0.8 -0.1,-0.2 -0.2,-0.3 -0.3,-0.3 z m -67.3,-49.2 c 1.3,-4.5 2.5,-8.9 3.8,-13.2 l 13.2,-45.9 c 0.2,-0.6 0.3,-1.1 0.5,-1.7 0.1,-0.4 0.6,-0.7 1,-0.7 0.5,-0.1 0.9,0.2 1,0.7 0.1,0.3 0.1,0.6 0.2,0.9 5.7,19.6 11.4,39.3 17,59 0.1,0.3 0.1,0.6 0.2,1 z m 408.6,-77.8 c -2.5,0 -16.1,0 -18.4,0 -0.3,0 -0.6,0.2 -0.7,0.5 l -38.2,129.4 h 16.1 l 10.1,-38.1 c 0.1,-0.3 0.4,-0.5 0.7,-0.5 h 42.7 c 0.3,0 0.6,0.2 0.7,0.5 1.1,3.8 11.4,38.1 11.4,38.1 0,0 16.1,0.2 16.2,0 0.1,-1 -37.8,-122.3 -40.1,-129.5 -0.1,-0.2 -0.3,-0.4 -0.5,-0.4 z m 8.9,77.9 c -3.3,0 -32.4,-0.4 -35.9,-0.4 -0.1,0 -0.2,0 -0.2,-0.1 0,-0.1 -0.1,-0.1 0,-0.2 1.1,-3.8 11.6,-40.5 16.9,-58.7 0.2,-0.8 0.6,-2.1 1.4,-2.1 0.7,0 1.1,1.3 1.3,2 5.3,18.3 15.7,55.5 16.8,59.2 0,0.1 0,0.1 0,0.2 -0.1,0 -0.2,0.1 -0.3,0.1 z m 26.2,181.8 c -0.2,-11.6 -4.8,-22.6 -13,-30.8 -8.2,-8.2 -19.4,-12.9 -31,-12.8 -24.2,0 -43.5,19.2 -44,43.6 -0.1,2.3 -0.2,5.6 -0.3,9.1 -0.2,5 -0.4,10.2 -0.4,13.6 0,3.6 0.2,9.1 0.3,14.4 0.1,3.2 0.2,6.2 0.2,8.4 0.2,11.6 4.8,22.6 13,30.8 8.2,8.2 19.4,12.9 31,12.8 24.1,0 43.5,-19.2 44,-43.6 0.1,-2.3 0.2,-5.6 0.3,-9.1 0.2,-5 0.4,-10.2 0.4,-13.6 0,-3.6 -0.2,-9.1 -0.3,-14.4 0,-3.2 -0.1,-6.2 -0.2,-8.4 z m -14.1,22.7 c 0,3.2 -0.2,8.2 -0.4,13.1 -0.1,3.6 -0.3,7 -0.3,9.4 -0.4,16.5 -13.3,29.4 -29.4,29.4 -16.1,0 -29.1,-12.9 -29.4,-29.3 0,-2.3 -0.1,-5.3 -0.2,-8.6 -0.2,-4.9 -0.3,-10.5 -0.3,-13.9 0,-3.2 0.2,-8.2 0.4,-13.1 0.1,-3.6 0.3,-6.9 0.3,-9.4 0.4,-16.5 13.3,-29.4 29.4,-29.4 16.1,0 29.1,12.9 29.4,29.3 0,2.3 0.1,5.3 0.2,8.6 0.2,5 0.4,10.6 0.3,13.9 z"
   id="path13"
   inkscape:connector-curvature="0"
   style="fill:#393e4d" />
		</g>
	</g>
</g>
</svg>