<?xml version="1.0" encoding="UTF-8" standalone="no"?>
<!-- Generator: Adobe Illustrator 25.0.1, SVG Export Plug-In . SVG Version: 6.00 Build 0)  -->

<svg
   xmlns:dc="http://purl.org/dc/elements/1.1/"
   xmlns:cc="http://creativecommons.org/ns#"
   xmlns:rdf="http://www.w3.org/1999/02/22-rdf-syntax-ns#"
   xmlns:svg="http://www.w3.org/2000/svg"
   xmlns="http://www.w3.org/2000/svg"
   xmlns:sodipodi="http://sodipodi.sourceforge.net/DTD/sodipodi-0.dtd"
   xmlns:inkscape="http://www.inkscape.org/namespaces/inkscape"
   version="1.0"
   id="Layer_1"
   x="0px"
   y="0px"
   viewBox="0 0 21.299999 4.8749999"
   xml:space="preserve"
   sodipodi:docname="polygon_name.svg"
   width="21.299999"
   height="4.875"
   inkscape:version="0.92.4 (5da689c313, 2019-01-14)"><metadata
   id="metadata27"><rdf:RDF><cc:Work
       rdf:about=""><dc:format>image/svg+xml</dc:format><dc:type
         rdf:resource="http://purl.org/dc/dcmitype/StillImage" /></cc:Work></rdf:RDF></metadata><defs
   id="defs25" /><sodipodi:namedview
   pagecolor="#ffffff"
   bordercolor="#666666"
   borderopacity="1"
   objecttolerance="10"
   gridtolerance="10"
   guidetolerance="10"
   inkscape:pageopacity="0"
   inkscape:pageshadow="2"
   inkscape:window-width="2560"
   inkscape:window-height="1057"
   id="namedview23"
   showgrid="false"
   inkscape:zoom="14.244898"
   inkscape:cx="1.9100287"
   inkscape:cy="2.4749998"
   inkscape:window-x="1912"
   inkscape:window-y="-8"
   inkscape:window-maximized="1"
   inkscape:current-layer="Layer_1" />
<style
   type="text/css"
   id="style2">
	.st0{fill:#8247E5;}
</style>
<g
   id="g18"
   transform="translate(-1.6,-5.4)">
	<path
   class="st0"
   d="m 9.9,6.9 c 0.1,0.1 0.2,0.2 0.3,0.3 0.1,0.1 0.1,0.3 0.1,0.5 0,0.2 0,0.4 -0.1,0.5 C 10.2,8.5 10,8.6 9.9,8.7 9.7,8.7 9.6,8.8 9.4,8.8 9.3,8.8 9.2,8.8 9.1,8.7 9,8.7 8.9,8.6 8.8,8.6 v 1 H 8.2 V 6.9 H 8.7 L 8.8,7.1 C 9,6.9 9.2,6.8 9.5,6.8 c 0.1,0 0.3,0 0.4,0.1 z M 9.6,8.2 C 9.7,8.1 9.8,8 9.8,7.8 9.8,7.6 9.7,7.5 9.6,7.4 9.5,7.3 9.4,7.3 9.3,7.3 9.2,7.3 9.1,7.3 9,7.4 8.9,7.4 8.9,7.5 8.8,7.6 V 8 c 0,0.1 0.1,0.2 0.2,0.2 0,0.1 0.1,0.1 0.2,0.1 0.2,0 0.3,0 0.4,-0.1 z"
   id="path4"
   inkscape:connector-curvature="0"
   style="fill:#8247e5" />
	<path
   class="st0"
   d="M 10.7,7.3 C 10.8,7.2 10.9,7 11.1,7 c 0.2,-0.1 0.3,-0.1 0.5,-0.1 0.2,0 0.4,0 0.5,0.1 0.1,0.1 0.3,0.2 0.4,0.4 0.1,0.1 0.1,0.3 0.1,0.5 0,0.2 0,0.3 -0.1,0.5 -0.1,0.1 -0.2,0.3 -0.4,0.3 -0.1,0.1 -0.3,0.1 -0.5,0.1 -0.2,0 -0.4,0 -0.5,-0.1 C 11,8.6 10.8,8.5 10.7,8.4 10.6,8.3 10.6,8.1 10.6,7.9 c 0,-0.3 0,-0.5 0.1,-0.6 z m 0.6,0.9 c 0.1,0.1 0.2,0.1 0.3,0.1 0.1,0 0.2,-0.1 0.3,-0.1 C 12,8.2 12,8 12,7.8 12,7.6 12,7.5 11.9,7.4 11.8,7.3 11.7,7.3 11.6,7.3 c -0.1,0 -0.2,0.1 -0.3,0.1 -0.1,0.1 -0.1,0.2 -0.1,0.4 0,0.1 0,0.3 0.1,0.4 z"
   id="path6"
   inkscape:connector-curvature="0"
   style="fill:#8247e5" />
	<path
   class="st0"
   d="M 13.6,5.4 V 8.7 H 13 V 5.4 Z"
   id="path8"
   inkscape:connector-curvature="0"
   style="fill:#8247e5" />
	<path
   class="st0"
   d="m 16,6.9 -1.2,2.7 h -0.6 l 0.4,-1 -0.8,-1.7 h 0.7 L 15,8 15.5,6.9 c -0.1,0 0.5,0 0.5,0 z"
   id="path10"
   inkscape:connector-curvature="0"
   style="fill:#8247e5" />
	<path
   class="st0"
   d="m 18.2,6.9 v 1.8 c 0,0.2 0,0.3 -0.1,0.5 -0.1,0.2 -0.2,0.2 -0.4,0.3 -0.2,0.1 -0.4,0.1 -0.6,0.1 -0.1,0 -0.3,0 -0.4,-0.1 -0.1,0 -0.2,-0.1 -0.3,-0.1 -0.1,0 -0.2,-0.1 -0.3,-0.2 l 0.3,-0.4 c 0.2,0.2 0.3,0.2 0.4,0.3 0.1,0.1 0.2,0.1 0.3,0.1 0.1,0 0.3,0 0.4,-0.1 C 17.6,9 17.6,8.9 17.6,8.8 V 8.5 C 17.5,8.6 17.5,8.7 17.3,8.7 17.2,8.8 17,8.8 16.9,8.8 16.8,8.8 16.6,8.8 16.4,8.7 16.3,8.6 16.2,8.5 16.1,8.4 16,8.1 16,8 16,7.8 16,7.6 16,7.5 16.1,7.3 16.2,7.1 16.3,7 16.5,6.9 c 0.1,-0.1 0.3,-0.1 0.4,-0.1 0.1,0 0.3,0 0.4,0.1 0.1,0 0.2,0.1 0.3,0.2 L 17.7,7 h 0.5 z M 17.6,8 V 7.6 c 0,-0.1 -0.1,-0.2 -0.2,-0.2 -0.1,0 -0.2,-0.1 -0.3,-0.1 -0.1,0 -0.3,0.1 -0.4,0.1 -0.1,0.1 -0.1,0.2 -0.1,0.4 0,0.1 0,0.3 0.1,0.4 0.1,0.1 0.2,0.2 0.4,0.2 0.2,-0.1 0.4,-0.2 0.5,-0.4 z"
   id="path12"
   inkscape:connector-curvature="0"
   style="fill:#8247e5" />
	<path
   class="st0"
   d="M 18.7,7.3 C 18.8,7.1 18.9,7 19,6.9 c 0.2,-0.1 0.3,-0.1 0.5,-0.1 0.2,0 0.4,0 0.5,0.1 0.1,0.1 0.3,0.2 0.4,0.3 0.1,0.2 0.1,0.3 0.1,0.5 0,0.2 0,0.4 -0.1,0.5 C 20.3,8.4 20.2,8.5 20,8.6 19.9,8.7 19.7,8.7 19.5,8.7 19.3,8.7 19.1,8.7 19,8.6 18.8,8.5 18.7,8.4 18.6,8.3 18.5,8.1 18.5,8 18.5,7.8 c 0,-0.2 0.1,-0.4 0.2,-0.5 z m 0.5,0.9 c 0.1,0.1 0.2,0.1 0.3,0.1 0.1,0 0.2,-0.1 0.3,-0.1 C 19.9,8.2 20,7.9 20,7.8 20,7.6 20,7.5 19.9,7.4 19.8,7.3 19.7,7.3 19.6,7.3 c -0.1,0 -0.2,0.1 -0.3,0.1 -0.1,0.1 -0.1,0.2 -0.1,0.4 -0.1,0.1 0,0.3 0,0.4 z"
   id="path14"
   inkscape:connector-curvature="0"
   style="fill:#8247e5" />
	<path
   class="st0"
   d="m 22.7,7 c 0.1,0.1 0.2,0.2 0.2,0.4 V 8.8 H 22.3 V 7.6 C 22.3,7.4 22.2,7.3 22,7.3 21.9,7.3 21.8,7.4 21.7,7.5 21.6,7.6 21.5,7.8 21.5,8 V 8.7 H 21 V 6.9 h 0.5 v 0.3 c 0.1,-0.1 0.2,-0.2 0.3,-0.3 0.1,-0.1 0.3,-0.1 0.4,-0.1 0.2,0 0.3,0.1 0.5,0.2 z"
   id="path16"
   inkscape:connector-curvature="0"
   style="fill:#8247e5" />
</g>
<path
   class="st0"
   d="M 4.1,1.5 C 4,1.4 3.9,1.4 3.8,1.5 L 3,1.9 2.5,2.2 1.7,2.7 C 1.6,2.8 1.5,2.8 1.4,2.7 L 0.7,2.3 C 0.6,2.3 0.6,2.2 0.6,2 V 1.3 C 0.6,1.2 0.7,1.1 0.8,1 L 1.4,0.7 C 1.5,0.6 1.6,0.6 1.7,0.7 L 2.3,1 C 2.4,1.1 2.5,1.2 2.5,1.3 V 1.8 L 3,1.5 V 1 C 3,0.9 2.9,0.8 2.8,0.7 L 1.7,0.1 C 1.6,0 1.5,0 1.4,0.1 L 0.2,0.7 C 0.1,0.8 0,0.9 0,1 v 1.3 c 0,0.2 0.1,0.3 0.2,0.3 l 1.2,0.7 c 0.1,0.1 0.2,0.1 0.3,0 L 2.5,2.9 3,2.6 3.8,2.2 C 3.9,2.1 4,2.1 4.1,2.2 l 0.6,0.3 c 0.1,0 0.2,0.1 0.2,0.2 V 3.4 C 4.9,3.5 4.8,3.6 4.7,3.7 L 4.1,4.1 C 4,4.2 3.9,4.2 3.8,4.1 L 3.2,3.7 C 3.1,3.7 3,3.6 3,3.5 V 3 L 2.5,3.3 V 3.8 C 2.5,3.9 2.6,4 2.7,4.1 L 3.9,4.8 C 4,4.9 4.1,4.9 4.2,4.8 L 5.4,4.1 C 5.4,4 5.5,3.9 5.5,3.8 V 2.4 C 5.5,2.3 5.4,2.2 5.3,2.1 Z"
   id="path20"
   inkscape:connector-curvature="0"
   style="fill:#8247e5" />
</svg>